<?xml version="1.0" encoding="UTF-8" standalone="no"?>
<!DOCTYPE svg PUBLIC "-//W3C//DTD SVG 1.1//EN" "http://www.w3.org/Graphics/SVG/1.1/DTD/svg11.dtd">
<svg width="100%" height="100%" viewBox="0 0 24 24" version="1.1" xmlns="http://www.w3.org/2000/svg" xmlns:xlink="http://www.w3.org/1999/xlink" xml:space="preserve" xmlns:serif="http://www.serif.com/" style="fill-rule:evenodd;clip-rule:evenodd;stroke-linejoin:round;stroke-miterlimit:2;">
    <path d="M23.998,11.999C23.998,5.372 18.626,0 11.999,0C5.372,0 0,5.372 0,11.999C0,17.988 4.388,22.952 10.124,23.852L10.124,15.468L7.078,15.468L7.078,11.999L10.124,11.999L10.124,9.356C10.124,6.348 11.916,4.687 14.656,4.687C15.969,4.687 17.342,4.921 17.342,4.921L17.342,7.874L15.829,7.874C14.339,7.874 13.874,8.799 13.874,9.748L13.874,11.999L17.202,11.999L16.67,15.468L13.874,15.468L13.874,23.852C19.61,22.952 23.998,17.988 23.998,11.999Z" style="fill:rgb(2,117,216);fill-rule:nonzero;"/>
</svg>
